<?xml version="1.0" encoding="utf-8"?>
<!-- Generator: Adobe Illustrator 24.2.0, SVG Export Plug-In . SVG Version: 6.00 Build 0)  -->
<svg version="1.1" xmlns="http://www.w3.org/2000/svg" xmlns:xlink="http://www.w3.org/1999/xlink" x="0px" y="0px"
	 viewBox="0 0 1080 1080" style="enable-background:new 0 0 1080 1080;" xml:space="preserve">
<style type="text/css">
	.st0{fill:#FFFFFF;stroke:#FFFFFF;stroke-width:4;stroke-miterlimit:10;}
	.st1{stroke:#000000;stroke-width:4;stroke-miterlimit:10;}
	.st2{fill:#E73331;}
	.st3{fill:#1951A0;}
	.st4{fill:#FFFFFF;}
	.st5{fill:#1951A0;stroke:#1951A0;stroke-width:4;stroke-miterlimit:10;}
</style>
<g id="Capa_1">
	<g>
		<path class="st0" d="M297.92,446.66l20.99-0.25c-1.08,6.16-1.84,11.4-2.92,16.57c-4.11,19.61-7.92,39.31-12.61,58.78
			c-7.61,31.61-32.29,43.25-61.77,39.25c0,0-16.46-2.65-23.02-14.18c4.41-4.71,8.6-9.63,13.08-14.69
			c11.67,9.7,24.09,12.95,37.67,6.2c7.46-3.71,13.21-13.19,13.8-22.37c-2.24,1.37,0,0,0,0c-14.5,10.59-41.39,9.49-50.52-2.9
			c-6.33-8.59-6.87-18.37-4.39-28.51c3.93-16.01,11.87-29.14,27.41-36.08c13.13-5.86,29.55-5.99,40.7,4.97 M266.51,504.09
			c10.37,0.08,19.57-6.91,23.45-17.83c3.51-9.87-2.65-19.84-13.04-21.13c-11.49-1.43-22.58,6.85-25.57,19.08
			C248.75,494.89,255.7,504,266.51,504.09z"/>
		<path class="st0" d="M419.13,498.83c2.02,1.74,3.89,3.36,5.77,4.97c7.82,6.72,7.87,6.93-1.19,12.49
			c-10.89,6.67-22.38,10.33-35.46,7.67c-21.53-4.39-29.87-20.62-24.85-41.94c5.85-24.87,32.32-41.76,57.52-37.25
			c14.93,2.67,23.86,16.55,21.09,33.5c-2.43,14.84-0.38,12.88-14.94,12.94c-12.24,0.05-24.49-0.02-36.73,0.09
			c-6.33,0.05-7.45,2.04-4.69,7.77c3.83,7.96,13.87,10.97,22.7,6.52C411.9,503.8,415.13,501.37,419.13,498.83z M403.42,476.38
			c0,0.02,0,0.05,0,0.07c3.43,0,6.87,0.07,10.3-0.02c6.14-0.16,9.76-1.44,7.15-6.96c-1.31-2.78-5.75-6.92-8.59-8.03
			c-7.91-3.09-19.09,1.98-22.96,9.54c-1.92,3.74-0.78,5.38,3.24,5.4C396.18,476.4,399.8,476.38,403.42,476.38z"/>
		<path class="st0" d="M157.07,524.07l8.18-38.72c1.52-6.98,3.54-13.87,10.25-17.86c4.71-2.8,9.93-3.51,14.78-0.78
			c4.72,2.65,4.63,7.57,4.01,12.26c-0.5,3.79-1.2,7.55-1.92,11.3c-2.11,10.85-4.27,21.69-6.6,33.48l23.15,0.17l6.27-33.68
			c1.53-9.38,2.73-14.98,3.19-24.46c0.4-8.19-4.75-18.27-12.78-19.8c-10.49-2-22.62-0.58-31.3,6.63c-1.29,1.07-0.77,1.41-2.98,2.86
			c0.76-4.15,0.84-5.3,1.06-8.74l-21.87-0.24l-1.67,7.71c-2.6,14.07-5.76,28.04-8.67,42.06c-1.81,8.74-3.56,17.49-5.6,27.53H158"/>
		<path class="st0" d="M441.11,513.38c6.53-5.76,10.36-8.97,16.14-14.06c5.47,6.74,12.33,9.23,20.11,7.12
			c2.87-0.78,6.55-3.19,7.41-5.7c1.51-4.39-3.14-5.47-6.27-6.52c-4.34-1.45-8.9-2.2-13.28-3.54c-13.92-4.27-18.24-14.37-11.79-27.56
			c4.88-9.98,13.09-15.86,23.82-17.97c10.47-2.06,20.95-2.25,30.8,2.8c2.25,1.15,4.12,3.07,6.95,5.24
			c-5.45,4.44-10.01,8.43-14.93,11.93c-0.93,0.67-3.44-0.22-4.86-1.01c-5.09-2.85-10.36-4.6-15.75-1.58
			c-2.02,1.13-4.3,3.94-4.27,5.95c0.03,1.8,2.78,4.35,4.87,5.14c5.15,1.96,10.7,2.84,15.94,4.61c12.04,4.06,16,12.88,11.46,24.88
			c-2.94,7.78-8.48,13.19-15.94,16.43c-13.5,5.86-27.37,6.9-41.3,1.65C446.48,519.48,443.18,516.96,441.11,513.38z"/>
		<polygon class="st0" points="94.9,523.56 119.06,523.95 141.14,412.48 116.98,412.09 		"/>
		<polygon class="st0" points="319.65,522.76 342.57,523.22 366.47,402.65 344.51,402.4 		"/>
		<polygon class="st0" points="428.69,414.47 453.2,413.94 428.4,434.34 412.74,434.39 		"/>
	</g>
	<g>
		<path class="st4" d="M800.37,646.11l-9.12-59.02l-70.9,7.74l-40.67,65.08l-67.4,9.3l152.98-249.59l62.55-6.16l27.34,166.05
			l40.72-216.92l-322.74,37.65c-15.42,1.8-27.92,13.34-30.95,28.57l-3.12,15.72l38.86-4.91l14.75,35.97
			c6.07,15.15,10.92,26.81,18.19,44.3l24.97-30.11L682,428.65l67.12-8.07L627.86,567.66l-26.05,102.7l-53.4,6.34l25.6-109.33
			l-42.84-83.18l-47.84,240.94l325.91-37.65c15.58-1.8,28.16-13.53,31.06-28.94l3.25-17.31L800.37,646.11z"/>
		<polygon class="st4" points="790.03,547.66 781.94,480.95 742.11,553.26 		"/>
	</g>
	<path class="st4" d="M943.45,654.2c-0.07,9.56-8.81,17.95-18.49,17.75c-7.79-0.16-11.98-4.56-11.89-12.49
		c0.1-8.95,9.13-17.91,18.02-17.88C938.08,641.61,943.5,647.14,943.45,654.2z"/>
	<path class="st4" d="M953.28,597.71c-1.49,7.56-2.62,14.39-4.34,21.07c-0.37,1.44-2.85,3.3-4.38,3.33
		c-24.2,0.41-48.41,0.54-72.62,0.77c-3.33,0.03-4.49-1.33-3.83-4.67c0.9-4.55,1.06-9.29,2.41-13.68c0.61-1.98,1.27-3.87,5.14-4.85
		c1.3-0.33,2.9-0.46,4.88-0.69c-0.4-1.31-0.47-2.27-0.94-2.98c-9.81-14.8-6.2-33.53,8.56-43.7c2.45-1.69,4.65-2.78,1.93-6.17
		c-8.55-10.66-8.93-24.68-1.29-36.38c6.6-10.1,16.51-14.69,27.96-15.24c16.82-0.81,33.69-0.56,50.53-0.91
		c4.09-0.08,5.11,1.53,4.22,5.3c-1.07,4.51-2.11,9.07-2.65,13.66c-0.47,3.98-2.41,5.09-6.15,5.08c-12.78-0.04-25.57,0.07-38.34,0.33
		c-3.44,0.07-6.97,0.52-10.29,1.42c-8.14,2.23-11.44,7.92-10.26,16.91c0.78,5.9,5.18,9.47,13.2,9.62
		c12.39,0.23,24.79-0.07,37.18-0.09c2.45,0,4.89,0.25,8.32,0.44c-1.42,7.67-2.49,14.7-4.2,21.57c-0.29,1.15-3.28,2.27-5.04,2.31
		c-12.58,0.3-25.18,0.15-37.76,0.5c-4.37,0.12-8.91,0.65-13.01,2.05c-6.74,2.3-10.11,9-8.79,15.72c1.08,5.51,5.92,9.16,13.09,9.2
		c14.14,0.07,28.27-0.16,42.41-0.24C950.12,597.4,951.05,597.54,953.28,597.71z"/>
	<polygon class="st4" points="910.67,391.84 942.57,417.94 992,390.24 986.76,419.4 955.71,436.28 978.18,455.6 972.92,483.6 
		936.28,452.94 893.84,481.67 899.04,450.18 924.34,436.9 904.3,422.18 	"/>
</g>
<g id="Capa_2">
</g>
</svg>
